<?xml version="1.0" encoding="utf-8"?>
<!-- Generator: Adobe Illustrator 15.1.0, SVG Export Plug-In . SVG Version: 6.00 Build 0)  -->
<!DOCTYPE svg PUBLIC "-//W3C//DTD SVG 1.1//EN" "http://www.w3.org/Graphics/SVG/1.1/DTD/svg11.dtd">
<svg version="1.1" id="Layer_1" xmlns="http://www.w3.org/2000/svg" xmlns:xlink="http://www.w3.org/1999/xlink" x="0px" y="0px"
	 width="529.2px" height="90.72px" viewBox="0 0 529.2 90.72" enable-background="new 0 0 529.2 90.72" xml:space="preserve">
<g>
	<path d="M10.083,77.982l94.472-66.314c3.921-2.831,8.6-6.32,14.999-6.32l118.03-0.068c7.84,0,4.72,5.188,9.319,5.188
		c3.16,0,4.88-5.188,14.68-5.188c5.44,0,237.582,0,248.38,0c13.68,0,19.237,7.708,19.237,17.788
		c0,11.919-15.278,26.557-25.316,29.317c-11.38,3.129-18.05-0.325-21.999,2.121c-10.08,6.239-19.039,36.236-71.994,36.236H211.427
		c-9.839,0-12.719-4.559-4.799-10.079l12.718-9.36c4.32-3.599,10.56-5.039,16.08-5.039l183.586,0.003
		c4.479,0,6.08-5.362-0.801-5.362l-99.513-0.001c-4.64,0-3.779-3.879-0.119-6.309l26.918-18.729c3.759-2.88,5.839-3.53,10.518-3.53
		l111.471,0.002c4.11,0,6.99-6.182,1.892-6.182c0,0-108.202,0.002-113.001,0.002c-5.918,0-8.717,0.596-14.159,4.348l-32.397,22.559
		c-6.96,5.145-9.87,7.839-17.999,7.839h-47.517c-4.619,0-2.71-4.428-0.419-5.979l20.848-14.668c4.089-2.47,2.29-5.23-0.31-5.23
		l-19.399,0.001c-3.6,0-6.24,0.639-11.519,4.359l-52.834,37.67c-4.8,3.84-10.661,7.924-19.401,7.924c-6.239,0-30.478,0-30.478,0
		c-6.839,0-10.169-7.349-1.77-12.867c8.399-5.521,47.127-32.248,47.127-32.248c2.07-1.5,2.609-4.8-1.47-4.8
		c-3.84,0-26.368,0.002-26.368,0.002c-6.24,0-8.879,1.349-14.399,5.428L75.118,81.861C66.719,87.622,61.918,90.74,55.2,90.74H10.724
		C5.723,90.741,1.484,84.021,10.083,77.982z"/>
	
		<linearGradient id="SVGID_1_" gradientUnits="userSpaceOnUse" x1="103.4927" y1="350.3506" x2="103.4927" y2="426.8298" gradientTransform="matrix(1 0 0 -1 162 433)">
		<stop  offset="0" style="stop-color:#939598"/>
		<stop  offset="0.2484" style="stop-color:#96989B"/>
		<stop  offset="0.5173" style="stop-color:#A1A2A5"/>
		<stop  offset="0.7949" style="stop-color:#B4B5B7"/>
		<stop  offset="1" style="stop-color:#C7C8C9"/>
	</linearGradient>
	<path fill="url(#SVGID_1_)" d="M8.402,74.145l94.472-66.316c3.921-2.83,8.6-6.319,14.999-6.319l118.03-0.069
		c7.84,0,4.72,5.189,9.319,5.189c3.16,0,4.88-5.189,14.68-5.189c5.44,0,237.582,0,248.38,0c13.68,0,19.237,7.708,19.237,17.788
		c0,11.92-15.278,26.558-25.316,29.316c-11.38,3.129-18.05-0.323-21.999,2.121c-10.08,6.24-19.039,36.237-71.994,36.237H209.746
		c-9.839,0-12.719-4.561-4.799-10.08l12.718-9.358c4.32-3.6,10.56-5.04,16.08-5.04l183.586,0.002c4.479,0,6.08-5.362-0.801-5.362
		l-99.513-0.001c-4.64,0-3.779-3.878-0.119-6.309l26.918-18.728c3.759-2.88,5.839-3.53,10.518-3.53l111.471,0.002
		c4.11,0,6.99-6.182,1.892-6.182c0,0-108.202,0.003-113.001,0.003c-5.918,0-8.717,0.596-14.159,4.348l-32.397,22.557
		c-6.96,5.146-9.87,7.839-17.999,7.839h-47.517c-4.619,0-2.71-4.428-0.419-5.978l20.848-14.669c4.089-2.47,2.29-5.229-0.31-5.229
		h-19.399c-3.6,0-6.24,0.64-11.519,4.359L178.99,73.217c-4.8,3.84-10.661,7.926-19.401,7.926c-6.239,0-30.478,0-30.478,0
		c-6.839,0-10.169-7.351-1.77-12.87c8.399-5.52,47.127-32.248,47.127-32.248c2.07-1.499,2.609-4.8-1.47-4.8
		c-3.84,0-26.368,0.003-26.368,0.003c-6.24,0-8.879,1.348-14.399,5.427L73.437,78.021c-8.399,5.76-13.199,8.879-19.918,8.879H9.043
		C4.042,86.902-0.197,80.182,8.402,74.145z"/>
	<path fill="#ED1C24" d="M408.21,88.341H209.746c-5.951,0-9.722-1.571-10.618-4.422c-0.563-1.795-0.154-4.688,4.995-8.278
		l12.689-9.336c4.03-3.362,10.226-5.32,16.933-5.32l183.586,0.003c1.592,0,2.425-0.899,2.425-1.381c0-0.458-1.001-1.101-3.226-1.101
		l-99.513-0.001c-3.229,0-4.191-1.592-4.478-2.54c-0.608-2.015,0.824-4.591,3.561-6.409l26.894-18.711
		c3.917-3.001,6.259-3.787,11.341-3.787l111.471,0.002c1.836,0,3.178-1.798,3.178-2.734c0-0.218-0.069-0.276-0.111-0.311
		c-0.073-0.06-0.373-0.256-1.175-0.256L354.696,23.76c-5.737,0-8.185,0.537-13.341,4.093l-32.393,22.554l-1.551,1.153
		c-6.004,4.477-9.31,6.944-17.271,6.944h-47.517c-2.939,0-3.843-1.515-4.12-2.418c-0.664-2.167,0.985-4.901,2.893-6.193
		l20.911-14.709c1.521-0.918,1.78-1.674,1.705-1.945c-0.083-0.295-0.591-0.612-1.271-0.612l-19.399,0.001
		c-3.371,0-5.715,0.591-10.69,4.095l-52.826,37.667c-4.921,3.938-11.011,8.191-20.237,8.191h-30.478c-3.869,0-6.979-2.032-7.92-5.18
		c-1.066-3.563,0.938-7.426,5.36-10.333c8.29-5.447,46.711-31.962,47.099-32.229c0.737-0.535,1.052-1.353,0.941-1.696
		c-0.077-0.239-0.6-0.48-1.593-0.48l-26.368,0.003c-5.762,0-8.064,1.097-13.542,5.146L74.266,79.199
		c-8.765,6.011-13.662,9.142-20.748,9.142H9.043c-3.053,0-5.811-1.981-6.708-4.819C1.8,81.828,1.24,77.413,7.575,72.964
		l94.73-66.501c3.944-2.849,8.851-6.395,15.569-6.395L235.903,0c5.287,0,6.574,2.315,7.426,3.847
		c0.574,1.03,0.746,1.341,1.894,1.341c0.652,0,1.335-0.463,2.483-1.281C249.891,2.351,253.192,0,259.902,0h248.38
		c13.142,0,20.678,7.008,20.678,19.227c0,12.947-15.96,27.843-26.376,30.705c-3.605,0.992-7.094,1.454-10.976,1.454
		c-1.52,0-2.913-0.068-4.145-0.129c-1.006-0.05-1.956-0.098-2.799-0.098c-1.771,0-2.878,0.219-3.704,0.729
		c-2.148,1.331-4.323,3.938-7.077,7.239C464.77,70.054,449.514,88.341,408.21,88.341z M233.744,63.863
		c-6.044,0-11.569,1.715-15.157,4.706L205.8,77.98c-3.346,2.334-4.215,4.147-3.925,5.076c0.376,1.195,2.956,2.404,7.871,2.404
		H408.21c39.956,0,54.103-16.958,63.464-28.179c2.92-3.501,5.229-6.267,7.772-7.843c1.651-1.022,3.565-1.161,5.22-1.161
		c0.914,0,1.898,0.049,2.941,0.101c1.196,0.06,2.554,0.127,4.001,0.127c3.615,0,6.86-0.43,10.213-1.351
		c9.139-2.513,24.26-16.605,24.26-27.929c0-10.542-6.321-16.347-17.799-16.347h-248.38c-5.79,0-8.416,1.87-10.525,3.372
		c-1.312,0.934-2.549,1.816-4.155,1.816c-2.841,0-3.749-1.631-4.411-2.822c-0.706-1.27-1.315-2.366-4.908-2.366L117.875,2.948
		c-5.787,0-10.089,3.108-13.883,5.851l-0.273,0.197L9.229,75.32c-3.363,2.363-4.875,5.035-4.149,7.332
		c0.523,1.654,2.152,2.81,3.963,2.81h44.475c6.233,0,10.837-2.958,19.104-8.627l58.781-41.356c5.863-4.334,8.736-5.69,15.227-5.69
		l26.368-0.002c3.187,0,4.091,1.728,4.332,2.471c0.537,1.656-0.293,3.685-2.017,4.936c-0.415,0.286-38.864,26.818-47.181,32.284
		c-3.301,2.168-4.864,4.824-4.183,7.1c0.568,1.898,2.594,3.125,5.161,3.125h30.478c8.295,0,13.9-3.928,18.5-7.609l52.898-37.719
		c5.553-3.912,8.516-4.626,12.355-4.626l19.399-0.001c1.935,0,3.599,1.118,4.044,2.719c0.241,0.866,0.434,3.095-2.946,5.156
		l-20.809,14.64c-1.136,0.771-1.968,2.352-1.776,2.979c0.071,0.229,0.621,0.382,1.367,0.382h47.517
		c7.004,0,9.683-1.997,15.549-6.372l1.594-1.185l32.429-22.582c5.716-3.941,8.753-4.606,14.982-4.606l113.001-0.002
		c1.26,0,2.272,0.308,3.01,0.917c0.746,0.617,1.156,1.516,1.156,2.53c0,2.542-2.701,5.614-6.058,5.614L354.33,29.936
		c-4.459,0-6.172,0.574-9.645,3.232l-26.971,18.767c-1.978,1.313-2.557,2.749-2.422,3.195c0.072,0.245,0.688,0.492,1.72,0.492
		l99.513,0.001c1.821,0,3.283,0.339,4.346,1.007c1.117,0.705,1.758,1.789,1.758,2.973c0,2.35-2.377,4.261-5.303,4.261
		L233.744,63.863z"/>
</g>
</svg>
